<svg version="1.1" xmlns="http://www.w3.org/2000/svg" xmlns:xlink="http://www.w3.org/1999/xlink" x="0px" y="0px" viewBox="0 0 32 32" enable-background="new 0 0 32 32" xml:space="preserve">
<g id="Guides">
</g>
<g id="_x32_0">
</g>
<g id="_x31_9">
</g>
<g id="_x31_8">
</g>
<g id="_x31_7">
	<path d="M28,2H15c-1.1045694,0-2,0.8954306-2,2v7c0,1.1045694,0.8954306,2,2,2h13c1.1045704,0,2-0.8954306,2-2V4
		C30,2.8954306,29.1045704,2,28,2z M18.7773438,9.0839844c0.2299805,0.1533203,0.2919922,0.4638672,0.1386719,0.6933594
		C18.8198242,9.921875,18.6611328,10,18.4995117,10c-0.0952148,0-0.1914063-0.0273438-0.2768555-0.0839844l-3-2
		C15.0834961,7.8232422,15,7.6669922,15,7.5s0.0834961-0.3232422,0.2226563-0.4160156l3-2
		c0.2294922-0.1533203,0.5400391-0.0917969,0.6933594,0.1386719c0.1533203,0.2294922,0.0913086,0.5400391-0.1386719,0.6933594
		L16.4013672,7.5L18.7773438,9.0839844z M22.9470825,5.7236328l-2,4C20.8591919,9.8984375,20.6829224,10,20.4993286,10
		c-0.0751953,0-0.1513672-0.0166016-0.2231445-0.0527344c-0.2470703-0.1240234-0.347168-0.4238281-0.2236328-0.6708984l2-4
		c0.1240234-0.2460938,0.4233398-0.3486328,0.6708984-0.2236328C22.97052,5.1767578,23.0706177,5.4765625,22.9470825,5.7236328z
		 M27.7773438,7.9163208l-3,2c-0.0854492,0.0566406-0.1816406,0.0839844-0.2768555,0.0839844
		c-0.1616211,0-0.3203125-0.078125-0.4165039-0.2226563c-0.1533203-0.2294922-0.0913086-0.5400391,0.1386719-0.6933594
		l2.3759766-1.5839844l-2.3759766-1.5839844c-0.2299805-0.1533203-0.2919922-0.4638672-0.1386719-0.6933594
		c0.152832-0.2304688,0.4619141-0.2919922,0.6933594-0.1386719l3,2C27.9165039,7.177063,28,7.333313,28,7.5003052
		S27.9165039,7.8235474,27.7773438,7.9163208z" id="id_113" style="fill: rgb(255, 255, 255);"></path>
	<path d="M19.6581421,19.8860474l-1.8865356-0.6288452c-0.1660767-0.6447754-0.420166-1.2526855-0.7515869-1.8118896
		l0.8898926-1.7798462c0.0962524-0.1925049,0.0585327-0.4249878-0.093689-0.5771484l-0.904541-0.904541
		c-0.1521606-0.1522217-0.3846436-0.1899414-0.5771484-0.093689l-1.7798462,0.8898926
		c-0.5592041-0.3314209-1.1671143-0.5855103-1.8118896-0.7515869l-0.6288452-1.8865356
		C12.0458984,12.1376953,11.8548584,12,11.6396484,12h-1.2792969c-0.21521,0-0.40625,0.1376953-0.4743042,0.3418579
		l-0.6288452,1.8865356c-0.6447754,0.1660767-1.2526855,0.420166-1.8118896,0.7515869l-1.7798462-0.8898926
		c-0.1925049-0.0962524-0.4249878-0.0585327-0.5771484,0.093689l-0.904541,0.904541
		c-0.1522217,0.1521606-0.1899414,0.3846436-0.093689,0.5771484l0.8898926,1.7798462
		c-0.3314209,0.5592041-0.5855103,1.1671143-0.7515869,1.8118896l-1.8865356,0.6288452
		C2.1376953,19.9541016,2,20.1451416,2,20.3603516v1.2792969c0,0.21521,0.1376953,0.40625,0.3418579,0.4743042l1.8865356,0.6288452
		c0.1660767,0.6447754,0.420166,1.2526855,0.7515869,1.8118896l-0.8898926,1.7798462
		c-0.0962524,0.1925049-0.0585327,0.4249878,0.093689,0.5771484l0.904541,0.904541
		c0.1521606,0.1522217,0.3846436,0.1899414,0.5771484,0.093689l1.7798462-0.8898926
		c0.5592041,0.3314209,1.1671143,0.5855103,1.8118896,0.7515869l0.6288452,1.8864746
		C9.9541016,29.8622437,10.1451416,30,10.3603516,30h1.2792969c0.21521,0,0.40625-0.1377563,0.4743042-0.3419189
		l0.6288452-1.8864746c0.6447754-0.1660767,1.2526855-0.420166,1.8118896-0.7515869l1.7798462,0.8898926
		c0.1925049,0.0962524,0.4249878,0.0585327,0.5771484-0.093689l0.904541-0.904541
		c0.1522217-0.1521606,0.1899414-0.3846436,0.093689-0.5771484l-0.8898926-1.7798462
		c0.3314209-0.5592041,0.5855103-1.1671143,0.7515869-1.8118896l1.8865356-0.6288452
		C19.8623047,22.0458984,20,21.8548584,20,21.6396484v-1.2792969C20,20.1451416,19.8623047,19.9541016,19.6581421,19.8860474z
		 M11,25c-2.2091675,0-4-1.7908325-4-4s1.7908325-4,4-4s4,1.7908325,4,4S13.2091675,25,11,25z" id="id_114" style="fill: rgb(255, 255, 255);"></path>
	<circle cx="11" cy="21" r="3" id="id_115" style="fill: rgb(255, 255, 255);"></circle>
</g>
<g id="_x31_6">
</g>
<g id="_x31_5">
</g>
<g id="_x31_4">
</g>
<g id="_x31_3">
</g>
<g id="_x31_2">
</g>
<g id="_x31_1">
</g>
<g id="_x31_0">
</g>
<g id="_x30_9">
</g>
<g id="_x30_8">
</g>
<g id="_x30_7">
</g>
<g id="_x30_6">
</g>
<g id="_x30_5">
</g>
<g id="_x30_4">
</g>
<g id="_x30_3">
</g>
<g id="_x30_2">
</g>
<g id="_x30_1">
</g>
</svg>